<svg xmlns="http://www.w3.org/2000/svg" xmlns:xlink="http://www.w3.org/1999/xlink" width="80" zoomAndPan="magnify" viewBox="0 0 60 30.000001" height="40" preserveAspectRatio="xMidYMid meet" version="1.0"><defs><g/><clipPath id="f59cc3be42"><path d="M 0.96875 0 L 59.03125 0 L 59.03125 29.03125 L 0.96875 29.03125 Z M 0.96875 0 " clip-rule="nonzero"/></clipPath></defs><g clip-path="url(#f59cc3be42)"><path fill="#ffffff" d="M 0.96875 0 L 59.03125 0 L 59.03125 29.03125 L 0.96875 29.03125 Z M 0.96875 0 " fill-opacity="1" fill-rule="nonzero"/><path fill="#ffffff" d="M 0.96875 0 L 59.03125 0 L 59.03125 29.03125 L 0.96875 29.03125 Z M 0.96875 0 " fill-opacity="1" fill-rule="nonzero"/></g><g fill="#2b2b2b" fill-opacity="1"><g transform="translate(1.674839, 19.168356)"><g><path d="M 9.835938 -0.988281 C 9.988281 -4 9.621094 -7.027344 9.0625 -9.972656 C 9.046875 -9.988281 9.015625 -9.988281 9.015625 -9.960938 C 9.09375 -9.0625 9.140625 -8.152344 9.171875 -7.242188 C 9.15625 -7.242188 9.125 -7.226562 9.109375 -7.226562 L 8.878906 -9.433594 C 8.832031 -9.882812 8.539062 -10.253906 8.058594 -10.253906 C 7.628906 -10.253906 7.195312 -9.882812 7.226562 -9.433594 C 7.335938 -8.011719 7.503906 -6.59375 7.628906 -5.171875 L 7.71875 -4.324219 C 7.101562 -5.636719 6.363281 -6.886719 5.527344 -8.074219 C 5.203125 -8.675781 4.847656 -9.371094 4.246094 -9.710938 C 4.167969 -9.648438 4.105469 -9.574219 4.0625 -9.496094 C 3.921875 -9.574219 3.78125 -9.605469 3.644531 -9.558594 C 3.164062 -9.371094 3.226562 -8.972656 3.210938 -8.539062 C 3.210938 -8.089844 3.257812 -7.644531 3.304688 -7.195312 C 3.382812 -6.347656 3.382812 -5.511719 3.304688 -4.664062 C 3.257812 -4.308594 3.210938 -3.953125 3.132812 -3.597656 C 3.089844 -3.644531 3.058594 -3.707031 3.042969 -3.765625 C 2.855469 -4.988281 2.75 -6.207031 2.640625 -7.441406 C 2.5625 -7.78125 2.484375 -8.121094 2.394531 -8.460938 C 2.300781 -8.832031 2.207031 -9.25 2.070312 -9.605469 C 1.867188 -10.097656 1.296875 -10.128906 1.296875 -9.773438 C 1.296875 -9.757812 1.328125 -9.742188 1.328125 -9.773438 C 1.421875 -10.082031 1.746094 -9.804688 1.804688 -9.648438 C 1.851562 -9.527344 1.867188 -9.402344 1.882812 -9.28125 C 1.882812 -9.21875 1.898438 -9.171875 1.914062 -9.125 C 1.714844 -9.402344 1.453125 -9.636719 1.144531 -9.789062 C 0.726562 -10.003906 0.371094 -9.664062 0.433594 -9.25 C 0.617188 -7.828125 0.816406 -6.421875 1.003906 -5.019531 C 1.171875 -3.582031 1.328125 -2.128906 1.574219 -0.710938 C 1.589844 -0.601562 1.636719 -0.523438 1.714844 -0.464844 C 1.761719 -0.246094 1.929688 -0.09375 2.128906 -0.03125 C 2.46875 0.0625 2.75 -0.140625 2.855469 -0.449219 C 2.886719 -0.539062 2.933594 -0.632812 2.964844 -0.726562 C 2.964844 -0.554688 3.042969 -0.433594 3.179688 -0.339844 C 3.210938 -0.324219 3.242188 -0.339844 3.257812 -0.371094 C 3.644531 -0.878906 3.890625 -1.511719 4.121094 -2.101562 C 4.355469 -2.765625 4.523438 -3.429688 4.664062 -4.105469 C 4.785156 -4.648438 4.878906 -5.203125 4.972656 -5.757812 C 5.109375 -5.589844 5.234375 -5.417969 5.359375 -5.25 C 5.699219 -4.769531 6.023438 -4.277344 6.316406 -3.78125 C 6.902344 -2.792969 7.410156 -1.777344 7.8125 -0.710938 C 7.984375 -0.292969 8.476562 -0.078125 8.847656 -0.371094 C 9.078125 -0.433594 9.28125 -0.585938 9.324219 -0.847656 C 9.339844 -0.910156 9.339844 -0.972656 9.355469 -1.035156 L 9.355469 -0.988281 C 9.371094 -0.679688 9.820312 -0.679688 9.835938 -0.988281 Z M 2.980469 -0.757812 C 2.996094 -0.816406 3.011719 -0.878906 3.042969 -0.925781 C 3.304688 -1.359375 3.535156 -1.820312 3.707031 -2.285156 C 3.566406 -1.667969 3.367188 -1.066406 3.179688 -0.464844 C 3.058594 -0.507812 2.996094 -0.601562 3.011719 -0.742188 C 3.011719 -0.757812 2.996094 -0.773438 2.980469 -0.757812 Z M 2.980469 -0.757812 "/></g></g></g><g fill="#2b2b2b" fill-opacity="1"><g transform="translate(10.614201, 19.168356)"><g><path d="M 5.652344 -0.464844 C 6.007812 0.648438 7.148438 0.617188 6.980469 -0.773438 C 6.855469 -1.699219 6.59375 -2.949219 6.390625 -3.859375 C 7.242188 -4.402344 7.070312 -5.789062 5.898438 -5.929688 C 5.789062 -6.855469 5.699219 -9.1875 5.683594 -9.03125 C 5.621094 -8.523438 5.589844 -7.984375 5.574219 -7.457031 C 5.558594 -7.457031 5.558594 -7.457031 5.542969 -7.472656 C 5.480469 -8.074219 5.417969 -8.707031 5.375 -9.324219 C 5.328125 -9.820312 5.003906 -10.128906 4.554688 -10.160156 C 4.429688 -10.40625 4.121094 -10.59375 3.859375 -10.578125 C 3.074219 -10.5625 2.765625 -9.605469 2.484375 -9 C 2.085938 -8.042969 1.835938 -7.039062 1.621094 -6.023438 C -0.214844 -5.742188 -0.214844 -4.0625 0.773438 -3.8125 C 0.789062 -3.765625 0.773438 -3.707031 0.757812 -3.675781 C 0.878906 -3.675781 1.035156 -3.691406 1.171875 -3.707031 C 0.941406 -2.808594 0.789062 -1.914062 0.664062 -1.003906 C 0.464844 0.449219 2.378906 0.664062 2.5 -0.742188 L 2.59375 -1.4375 C 2.59375 -1.4375 2.855469 -3.011719 3.058594 -3.765625 L 3.195312 -3.765625 C 2.902344 -2.855469 2.765625 -1.914062 2.6875 -0.988281 C 2.671875 -0.804688 2.933594 -0.804688 2.933594 -0.988281 C 3.011719 -1.929688 3.179688 -2.839844 3.414062 -3.765625 L 4.617188 -3.78125 C 4.738281 -3.226562 5.359375 -0.570312 5.652344 -0.464844 Z M 3.367188 -5.773438 C 3.503906 -6.5 3.691406 -7.117188 3.9375 -7.984375 C 4.089844 -7.273438 4.167969 -6.222656 4.230469 -5.835938 C 4.015625 -5.820312 3.582031 -5.804688 3.367188 -5.773438 Z M 3.367188 -5.773438 "/></g></g></g><g fill="#2b2b2b" fill-opacity="1"><g transform="translate(16.465649, 19.168356)"><g><path d="M 8.800781 -5.882812 C 8.847656 -6.222656 8.753906 -6.5 8.507812 -6.6875 C 8.308594 -6.839844 8.089844 -7.011719 7.875 -7.164062 C 7.84375 -7.289062 7.78125 -7.410156 7.660156 -7.503906 C 6.144531 -8.523438 4.617188 -9.574219 2.917969 -10.113281 C 2.902344 -10.113281 2.886719 -10.128906 2.871094 -10.128906 C 2.765625 -10.175781 2.65625 -10.207031 2.546875 -10.253906 C 2.515625 -10.285156 2.46875 -10.3125 2.410156 -10.3125 C 1.898438 -10.40625 0.972656 -10.609375 0.679688 -10.035156 C 0.507812 -9.679688 0.679688 -9.25 0.972656 -9 C 0.878906 -8.863281 0.773438 -8.753906 0.648438 -8.660156 C 0.773438 -8.136719 0.878906 -7.597656 0.988281 -7.070312 C 0.894531 -7.070312 0.804688 -7.070312 0.710938 -7.054688 C 0.246094 -7.054688 0.0625 -6.285156 0.492188 -6.007812 C 0.632812 -5.914062 0.804688 -5.820312 0.957031 -5.757812 L 0.601562 -5.714844 C 0.773438 -5.652344 0.941406 -5.589844 1.113281 -5.542969 C 1.171875 -5.527344 1.203125 -5.480469 1.203125 -5.433594 C 1.234375 -5.433594 1.265625 -5.433594 1.296875 -5.433594 L 1.390625 -4.894531 C 1.511719 -4.167969 1.636719 -3.441406 1.761719 -2.71875 L 1.898438 -1.699219 C 1.929688 -1.359375 1.898438 -0.988281 1.976562 -0.664062 C 1.976562 -0.492188 2.128906 -0.386719 2.253906 -0.417969 C 2.269531 -0.324219 2.300781 -0.246094 2.347656 -0.167969 C 2.53125 0.046875 2.839844 0.03125 3.042969 -0.140625 C 3.195312 -0.261719 3.304688 -0.417969 3.398438 -0.601562 C 3.398438 -0.679688 3.398438 -0.773438 3.382812 -0.863281 C 3.429688 -1.621094 3.351562 -2.410156 3.304688 -3.164062 C 3.273438 -3.875 3.210938 -4.585938 3.132812 -5.28125 C 3.535156 -5.265625 3.953125 -5.234375 4.355469 -5.21875 C 4.429688 -5.078125 4.523438 -4.925781 4.617188 -4.785156 L 4.617188 -4.769531 C 4.710938 -4.617188 4.785156 -4.460938 4.863281 -4.292969 C 5.15625 -3.722656 5.574219 -2.703125 5.742188 -2.300781 C 6.050781 -1.589844 6.363281 -0.863281 6.640625 -0.140625 C 6.699219 -0.109375 6.792969 -0.140625 6.839844 -0.183594 C 6.839844 -0.167969 6.855469 -0.167969 6.871094 -0.167969 C 7.011719 -0.109375 7.148438 -0.109375 7.289062 -0.125 C 7.550781 -0.015625 7.90625 -0.09375 7.953125 -0.433594 C 8.074219 -1.4375 7.535156 -2.410156 7.117188 -3.289062 C 6.792969 -3.953125 6.421875 -4.585938 6.007812 -5.203125 C 6.730469 -5.140625 7.457031 -5.078125 8.183594 -5.035156 C 8.429688 -5.003906 8.722656 -5.265625 8.753906 -5.558594 Z M 2.53125 -8.246094 L 2.484375 -8.492188 C 3.8125 -8.183594 5.050781 -7.519531 6.238281 -6.699219 L 4.738281 -6.886719 C 4.386719 -7.179688 3.875 -7.597656 3.414062 -7.304688 C 3.335938 -7.242188 3.289062 -7.148438 3.273438 -7.070312 C 3.195312 -7.085938 3.105469 -7.085938 3.027344 -7.101562 C 2.964844 -7.425781 2.886719 -7.75 2.808594 -8.074219 C 2.792969 -8.214844 2.640625 -8.214844 2.5625 -8.136719 C 2.546875 -8.167969 2.546875 -8.214844 2.53125 -8.246094 Z M 3.628906 -1.296875 C 3.691406 -1.667969 3.8125 -1.820312 3.765625 -2.378906 C 3.691406 -3.304688 3.613281 -4.230469 3.457031 -5.125 L 3.335938 -5.125 C 3.519531 -3.859375 3.566406 -2.578125 3.628906 -1.296875 Z M 3.628906 -1.296875 "/></g></g></g><g fill="#2b2b2b" fill-opacity="1"><g transform="translate(24.169846, 19.168356)"><g><path d="M 8.894531 -1.40625 C 9.234375 -2.207031 8.894531 -3.089844 8.523438 -3.8125 C 8.230469 -4.402344 7.859375 -4.941406 7.472656 -5.449219 C 7.242188 -5.757812 6.980469 -6.050781 6.714844 -6.332031 C 5.976562 -7.179688 5.171875 -7.96875 4.371094 -8.738281 C 3.644531 -9.433594 2.902344 -10.113281 1.867188 -10.191406 C 1.511719 -10.222656 0.804688 -10.097656 0.664062 -9.695312 C 0.601562 -9.695312 0.523438 -9.679688 0.449219 -9.664062 C 0.167969 -9.621094 -0.0625 -9.355469 0.03125 -9.046875 C 0.046875 -9 0.078125 -8.941406 0.09375 -8.878906 C 0.449219 -7.164062 0.804688 -5.449219 1.144531 -3.722656 C 1.1875 -3.535156 1.21875 -3.367188 1.25 -3.179688 L 1.1875 -3.226562 C 0.757812 -3.472656 0.167969 -3.320312 -0.078125 -2.886719 C -0.339844 -2.453125 -0.199219 -1.851562 0.246094 -1.605469 C 0.726562 -1.359375 1.203125 -1.144531 1.699219 -0.941406 C 1.777344 -0.570312 1.882812 -0.324219 2.222656 -0.09375 C 2.378906 0.015625 2.59375 0.046875 2.792969 0.03125 C 2.902344 0.03125 2.980469 -0.015625 3.042969 -0.078125 C 3.105469 -0.046875 3.179688 -0.03125 3.257812 -0.046875 C 3.382812 -0.078125 3.488281 -0.183594 3.550781 -0.324219 C 3.921875 -0.230469 4.308594 -0.15625 4.695312 -0.09375 C 5.511719 0.03125 6.316406 0.0625 7.117188 -0.125 C 7.8125 -0.292969 8.601562 -0.726562 8.894531 -1.40625 Z M 0.570312 -7.75 C 0.773438 -7.085938 1.4375 -4.339844 1.636719 -3.613281 C 1.699219 -3.351562 1.792969 -3.089844 1.882812 -2.824219 C 1.792969 -2.871094 1.699219 -2.933594 1.605469 -2.980469 L 1.1875 -4.632812 C 0.910156 -5.699219 0.695312 -6.761719 0.433594 -7.828125 C 0.386719 -8.042969 0.554688 -7.8125 0.570312 -7.75 Z M 7.117188 -3.042969 C 7.226562 -2.871094 7.320312 -2.671875 7.410156 -2.484375 C 7.503906 -2.300781 7.597656 -2.128906 7.628906 -1.929688 C 7.457031 -1.777344 7.242188 -1.699219 6.980469 -1.636719 C 6.65625 -1.542969 6.421875 -1.542969 6.050781 -1.542969 C 5.652344 -1.558594 5.449219 -1.589844 5.050781 -1.683594 C 4.539062 -1.792969 4.046875 -1.945312 3.566406 -2.117188 C 3.488281 -2.578125 3.398438 -3.042969 3.320312 -3.503906 C 3.105469 -4.785156 2.871094 -6.082031 2.609375 -7.363281 L 2.902344 -7.210938 C 3.628906 -6.792969 4.246094 -6.347656 4.832031 -5.804688 C 5.417969 -5.296875 5.945312 -4.710938 6.40625 -4.089844 C 6.65625 -3.753906 6.886719 -3.398438 7.117188 -3.042969 Z M 7.117188 -3.042969 "/></g></g></g><g fill="#2b2b2b" fill-opacity="1"><g transform="translate(31.657887, 19.168356)"><g><path d="M 0.214844 -8.910156 C 0.246094 -8.753906 0.464844 -8.632812 0.601562 -8.585938 C 0.832031 -8.492188 1.066406 -8.460938 1.3125 -8.460938 C 1.605469 -8.460938 1.945312 -8.539062 2.128906 -8.753906 C 2.425781 -8.816406 2.71875 -8.957031 2.949219 -9.125 C 3.074219 -9.21875 3.179688 -9.371094 3.117188 -9.542969 C 2.964844 -9.945312 2.65625 -10.175781 2.238281 -10.285156 C 1.761719 -10.40625 1.28125 -10.222656 0.878906 -9.945312 C 0.847656 -9.929688 0.816406 -9.898438 0.789062 -9.867188 C 0.632812 -9.757812 0.507812 -9.636719 0.402344 -9.480469 C 0.292969 -9.324219 0.15625 -9.109375 0.214844 -8.910156 Z M 1.25 -8.539062 C 1.066406 -8.554688 0.894531 -8.585938 0.726562 -8.648438 C 0.617188 -8.675781 0.523438 -8.738281 0.433594 -8.816406 C 0.308594 -8.925781 0.324219 -9.03125 0.386719 -9.171875 C 0.449219 -9.28125 0.507812 -9.371094 0.585938 -9.464844 C 0.433594 -9.109375 0.601562 -8.753906 1.050781 -8.660156 C 1.40625 -8.601562 1.605469 -8.632812 1.792969 -8.675781 C 1.804688 -8.675781 1.699219 -8.539062 1.25 -8.539062 Z M 2.855469 -0.816406 C 2.886719 -0.664062 3.132812 -0.679688 3.117188 -0.832031 C 2.824219 -3.027344 2.703125 -5.21875 2.765625 -7.425781 C 2.765625 -7.441406 2.65625 -7.425781 2.65625 -7.394531 C 2.59375 -6.300781 2.59375 -4.679688 2.640625 -3.582031 C 2.609375 -3.582031 2.5625 -4.121094 2.53125 -4.105469 C 2.515625 -4.246094 2.5 -4.386719 2.5 -4.492188 C 2.484375 -5.066406 2.453125 -5.636719 2.453125 -6.191406 C 2.453125 -6.761719 2.484375 -7.320312 2.484375 -7.890625 C 2.46875 -8.027344 2.347656 -8.089844 2.238281 -8.074219 C 1.992188 -8.691406 1.203125 -8.121094 0.878906 -7.90625 C 0.832031 -7.859375 0.789062 -7.8125 0.757812 -7.75 C 0.570312 -7.566406 0.480469 -7.273438 0.433594 -6.980469 C 0.371094 -6.421875 0.386719 -5.851562 0.386719 -5.296875 C 0.371094 -4.136719 0.449219 -2.996094 0.585938 -1.851562 C 0.648438 -1.421875 0.664062 -0.957031 0.988281 -0.648438 C 1.066406 -0.585938 1.144531 -0.539062 1.21875 -0.507812 L 1.25 -0.464844 C 1.542969 -0.167969 2.007812 -0.078125 2.378906 -0.261719 C 2.515625 -0.324219 2.546875 -0.449219 2.53125 -0.554688 C 2.65625 -0.601562 2.777344 -0.695312 2.855469 -0.816406 Z M 1.144531 -7.117188 C 1.144531 -7.148438 1.203125 -7.242188 1.25 -7.273438 L 1.265625 -7.273438 C 1.097656 -6.777344 1.066406 -6.207031 1.066406 -5.683594 C 1.050781 -4.988281 1.066406 -4.292969 1.066406 -3.597656 L 1.019531 -3.597656 C 0.972656 -3.96875 0.925781 -4.339844 0.894531 -4.710938 C 0.894531 -4.726562 0.894531 -4.726562 0.894531 -4.738281 L 0.894531 -4.894531 C 0.925781 -5.605469 0.910156 -6.421875 1.144531 -7.117188 Z M 1.144531 -7.117188 "/></g></g></g><g fill="#2b2b2b" fill-opacity="1"><g transform="translate(33.49505, 19.168356)"><g><path d="M 0.355469 -8.152344 C 0.324219 -8.121094 0.324219 -8.074219 0.355469 -8.058594 C 0.695312 -8.214844 1.035156 -8.351562 1.390625 -8.460938 C 2.410156 -8.816406 3.457031 -9.046875 4.507812 -9.28125 C 5.109375 -9.417969 5.726562 -9.574219 6.332031 -9.726562 C 6.191406 -9.726562 6.050781 -9.726562 5.914062 -9.710938 C 5.25 -9.664062 4.617188 -9.542969 3.984375 -9.417969 L 3.628906 -9.324219 C 2.515625 -9.03125 1.375 -8.691406 0.355469 -8.152344 Z M 9.015625 -1.867188 C 9.203125 -2.007812 9.324219 -2.222656 9.3125 -2.5 C 9.25 -3.382812 8.957031 -4.738281 7.765625 -4.492188 C 7.597656 -4.445312 7.441406 -4.371094 7.273438 -4.324219 L 6.671875 -4.136719 C 6.300781 -4.015625 5.929688 -3.875 5.558594 -3.738281 C 5.328125 -3.660156 5.09375 -3.566406 4.863281 -3.472656 L 3.550781 -2.964844 C 3.210938 -2.824219 2.871094 -2.6875 2.53125 -2.53125 L 2.484375 -2.5 C 2.484375 -2.53125 2.484375 -2.546875 2.484375 -2.5625 L 2.394531 -3.566406 C 2.824219 -3.78125 3.242188 -4 3.691406 -4.183594 C 4.414062 -4.492188 5.140625 -4.726562 5.882812 -4.925781 C 6.253906 -5.019531 6.640625 -5.09375 7.011719 -5.15625 C 7.363281 -5.234375 7.703125 -5.21875 8.027344 -5.375 C 8.308594 -5.511719 8.492188 -5.851562 8.429688 -6.144531 C 8.398438 -6.300781 8.308594 -6.453125 8.167969 -6.53125 C 8.152344 -6.53125 8.152344 -6.53125 8.136719 -6.546875 C 8.121094 -6.609375 8.089844 -6.671875 8.058594 -6.730469 C 8.042969 -6.761719 8.027344 -6.808594 8 -6.855469 C 7.78125 -7.226562 7.410156 -7.242188 7.027344 -7.226562 C 6.839844 -7.210938 6.671875 -7.195312 6.484375 -7.164062 L 6.285156 -7.117188 C 5.789062 -6.980469 5.28125 -6.839844 4.785156 -6.714844 C 3.90625 -6.390625 3.058594 -6.023438 2.191406 -5.652344 C 2.191406 -5.726562 2.101562 -6.285156 2.085938 -6.4375 L 2.117188 -6.46875 C 2.59375 -6.671875 3.089844 -6.855469 3.582031 -7.027344 C 3.753906 -7.101562 5.28125 -7.566406 6.066406 -7.78125 C 6.097656 -7.78125 6.128906 -7.796875 6.160156 -7.8125 C 6.515625 -7.90625 6.871094 -8.011719 7.210938 -8.121094 L 7.984375 -8.351562 C 8.042969 -8.660156 8 -8.984375 7.890625 -9.3125 C 7.8125 -9.371094 7.71875 -9.449219 7.644531 -9.511719 L 7.394531 -9.605469 C 7.304688 -9.636719 7.195312 -9.648438 7.085938 -9.664062 C 6.285156 -9.449219 5.480469 -9.234375 4.664062 -9.046875 C 3.613281 -8.832031 2.5625 -8.601562 1.542969 -8.246094 C 1.21875 -8.136719 0.878906 -8.011719 0.554688 -7.875 C 0.539062 -7.828125 0.507812 -7.78125 0.492188 -7.75 C 0.277344 -7.566406 0.140625 -7.335938 0.109375 -7.027344 C 0.078125 -6.761719 0.167969 -6.46875 0.355469 -6.269531 L 0.539062 -4.507812 L 0.726562 -2.65625 C 0.773438 -2.117188 0.804688 -1.558594 0.894531 -1.035156 C 0.757812 -0.632812 1.019531 -0.167969 1.40625 -0.015625 C 1.390625 0.0625 1.390625 0.125 1.421875 0.199219 C 1.542969 0.464844 1.820312 0.480469 2.070312 0.433594 C 2.128906 0.433594 2.222656 0.417969 2.222656 0.417969 C 2.207031 0.433594 3.089844 0.167969 3.273438 0.046875 L 3.289062 0.03125 C 3.457031 -0.046875 3.628906 -0.109375 3.796875 -0.183594 C 3.828125 -0.199219 3.875 -0.214844 3.90625 -0.230469 L 3.921875 -0.230469 C 4.429688 -0.449219 4.957031 -0.632812 5.480469 -0.816406 C 6.578125 -1.203125 7.71875 -1.496094 8.863281 -1.714844 C 8.957031 -1.730469 9 -1.792969 9.015625 -1.867188 Z M 5.28125 -5.140625 L 5.296875 -5.09375 C 5.203125 -5.066406 5.125 -5.035156 5.035156 -4.988281 C 4.261719 -4.679688 3.457031 -4.386719 2.703125 -4 C 2.824219 -4.105469 2.917969 -4.261719 2.949219 -4.429688 C 3.242188 -4.507812 3.535156 -4.601562 3.84375 -4.695312 C 4.324219 -4.847656 4.800781 -4.988281 5.28125 -5.140625 Z M 1.867188 0.199219 C 2.175781 0.125 2.46875 0 2.765625 -0.109375 C 3.058594 -0.199219 3.335938 -0.308594 3.613281 -0.417969 L 3.613281 -0.386719 C 3.382812 -0.261719 3.148438 -0.140625 2.902344 -0.015625 C 2.792969 0.046875 2.671875 0.109375 2.546875 0.167969 C 2.53125 0.183594 2.515625 0.183594 2.5 0.183594 C 2.453125 0.199219 2.101562 0.230469 1.867188 0.199219 Z M 1.867188 0.199219 "/></g></g></g><g fill="#2b2b2b" fill-opacity="1"><g transform="translate(41.353642, 19.168356)"><g><path d="M 8.800781 -5.882812 C 8.847656 -6.222656 8.753906 -6.5 8.507812 -6.6875 C 8.308594 -6.839844 8.089844 -7.011719 7.875 -7.164062 C 7.84375 -7.289062 7.78125 -7.410156 7.660156 -7.503906 C 6.144531 -8.523438 4.617188 -9.574219 2.917969 -10.113281 C 2.902344 -10.113281 2.886719 -10.128906 2.871094 -10.128906 C 2.765625 -10.175781 2.65625 -10.207031 2.546875 -10.253906 C 2.515625 -10.285156 2.46875 -10.3125 2.410156 -10.3125 C 1.898438 -10.40625 0.972656 -10.609375 0.679688 -10.035156 C 0.507812 -9.679688 0.679688 -9.25 0.972656 -9 C 0.878906 -8.863281 0.773438 -8.753906 0.648438 -8.660156 C 0.773438 -8.136719 0.878906 -7.597656 0.988281 -7.070312 C 0.894531 -7.070312 0.804688 -7.070312 0.710938 -7.054688 C 0.246094 -7.054688 0.0625 -6.285156 0.492188 -6.007812 C 0.632812 -5.914062 0.804688 -5.820312 0.957031 -5.757812 L 0.601562 -5.714844 C 0.773438 -5.652344 0.941406 -5.589844 1.113281 -5.542969 C 1.171875 -5.527344 1.203125 -5.480469 1.203125 -5.433594 C 1.234375 -5.433594 1.265625 -5.433594 1.296875 -5.433594 L 1.390625 -4.894531 C 1.511719 -4.167969 1.636719 -3.441406 1.761719 -2.71875 L 1.898438 -1.699219 C 1.929688 -1.359375 1.898438 -0.988281 1.976562 -0.664062 C 1.976562 -0.492188 2.128906 -0.386719 2.253906 -0.417969 C 2.269531 -0.324219 2.300781 -0.246094 2.347656 -0.167969 C 2.53125 0.046875 2.839844 0.03125 3.042969 -0.140625 C 3.195312 -0.261719 3.304688 -0.417969 3.398438 -0.601562 C 3.398438 -0.679688 3.398438 -0.773438 3.382812 -0.863281 C 3.429688 -1.621094 3.351562 -2.410156 3.304688 -3.164062 C 3.273438 -3.875 3.210938 -4.585938 3.132812 -5.28125 C 3.535156 -5.265625 3.953125 -5.234375 4.355469 -5.21875 C 4.429688 -5.078125 4.523438 -4.925781 4.617188 -4.785156 L 4.617188 -4.769531 C 4.710938 -4.617188 4.785156 -4.460938 4.863281 -4.292969 C 5.15625 -3.722656 5.574219 -2.703125 5.742188 -2.300781 C 6.050781 -1.589844 6.363281 -0.863281 6.640625 -0.140625 C 6.699219 -0.109375 6.792969 -0.140625 6.839844 -0.183594 C 6.839844 -0.167969 6.855469 -0.167969 6.871094 -0.167969 C 7.011719 -0.109375 7.148438 -0.109375 7.289062 -0.125 C 7.550781 -0.015625 7.90625 -0.09375 7.953125 -0.433594 C 8.074219 -1.4375 7.535156 -2.410156 7.117188 -3.289062 C 6.792969 -3.953125 6.421875 -4.585938 6.007812 -5.203125 C 6.730469 -5.140625 7.457031 -5.078125 8.183594 -5.035156 C 8.429688 -5.003906 8.722656 -5.265625 8.753906 -5.558594 Z M 2.53125 -8.246094 L 2.484375 -8.492188 C 3.8125 -8.183594 5.050781 -7.519531 6.238281 -6.699219 L 4.738281 -6.886719 C 4.386719 -7.179688 3.875 -7.597656 3.414062 -7.304688 C 3.335938 -7.242188 3.289062 -7.148438 3.273438 -7.070312 C 3.195312 -7.085938 3.105469 -7.085938 3.027344 -7.101562 C 2.964844 -7.425781 2.886719 -7.75 2.808594 -8.074219 C 2.792969 -8.214844 2.640625 -8.214844 2.5625 -8.136719 C 2.546875 -8.167969 2.546875 -8.214844 2.53125 -8.246094 Z M 3.628906 -1.296875 C 3.691406 -1.667969 3.8125 -1.820312 3.765625 -2.378906 C 3.691406 -3.304688 3.613281 -4.230469 3.457031 -5.125 L 3.335938 -5.125 C 3.519531 -3.859375 3.566406 -2.578125 3.628906 -1.296875 Z M 3.628906 -1.296875 "/></g></g></g><g fill="#2b2b2b" fill-opacity="1"><g transform="translate(49.057837, 19.168356)"><g><path d="M 0.355469 -8.152344 C 0.324219 -8.121094 0.324219 -8.074219 0.355469 -8.058594 C 0.695312 -8.214844 1.035156 -8.351562 1.390625 -8.460938 C 2.410156 -8.816406 3.457031 -9.046875 4.507812 -9.28125 C 5.109375 -9.417969 5.726562 -9.574219 6.332031 -9.726562 C 6.191406 -9.726562 6.050781 -9.726562 5.914062 -9.710938 C 5.25 -9.664062 4.617188 -9.542969 3.984375 -9.417969 L 3.628906 -9.324219 C 2.515625 -9.03125 1.375 -8.691406 0.355469 -8.152344 Z M 9.015625 -1.867188 C 9.203125 -2.007812 9.324219 -2.222656 9.3125 -2.5 C 9.25 -3.382812 8.957031 -4.738281 7.765625 -4.492188 C 7.597656 -4.445312 7.441406 -4.371094 7.273438 -4.324219 L 6.671875 -4.136719 C 6.300781 -4.015625 5.929688 -3.875 5.558594 -3.738281 C 5.328125 -3.660156 5.09375 -3.566406 4.863281 -3.472656 L 3.550781 -2.964844 C 3.210938 -2.824219 2.871094 -2.6875 2.53125 -2.53125 L 2.484375 -2.5 C 2.484375 -2.53125 2.484375 -2.546875 2.484375 -2.5625 L 2.394531 -3.566406 C 2.824219 -3.78125 3.242188 -4 3.691406 -4.183594 C 4.414062 -4.492188 5.140625 -4.726562 5.882812 -4.925781 C 6.253906 -5.019531 6.640625 -5.09375 7.011719 -5.15625 C 7.363281 -5.234375 7.703125 -5.21875 8.027344 -5.375 C 8.308594 -5.511719 8.492188 -5.851562 8.429688 -6.144531 C 8.398438 -6.300781 8.308594 -6.453125 8.167969 -6.53125 C 8.152344 -6.53125 8.152344 -6.53125 8.136719 -6.546875 C 8.121094 -6.609375 8.089844 -6.671875 8.058594 -6.730469 C 8.042969 -6.761719 8.027344 -6.808594 8 -6.855469 C 7.78125 -7.226562 7.410156 -7.242188 7.027344 -7.226562 C 6.839844 -7.210938 6.671875 -7.195312 6.484375 -7.164062 L 6.285156 -7.117188 C 5.789062 -6.980469 5.28125 -6.839844 4.785156 -6.714844 C 3.90625 -6.390625 3.058594 -6.023438 2.191406 -5.652344 C 2.191406 -5.726562 2.101562 -6.285156 2.085938 -6.4375 L 2.117188 -6.46875 C 2.59375 -6.671875 3.089844 -6.855469 3.582031 -7.027344 C 3.753906 -7.101562 5.28125 -7.566406 6.066406 -7.78125 C 6.097656 -7.78125 6.128906 -7.796875 6.160156 -7.8125 C 6.515625 -7.90625 6.871094 -8.011719 7.210938 -8.121094 L 7.984375 -8.351562 C 8.042969 -8.660156 8 -8.984375 7.890625 -9.3125 C 7.8125 -9.371094 7.71875 -9.449219 7.644531 -9.511719 L 7.394531 -9.605469 C 7.304688 -9.636719 7.195312 -9.648438 7.085938 -9.664062 C 6.285156 -9.449219 5.480469 -9.234375 4.664062 -9.046875 C 3.613281 -8.832031 2.5625 -8.601562 1.542969 -8.246094 C 1.21875 -8.136719 0.878906 -8.011719 0.554688 -7.875 C 0.539062 -7.828125 0.507812 -7.78125 0.492188 -7.75 C 0.277344 -7.566406 0.140625 -7.335938 0.109375 -7.027344 C 0.078125 -6.761719 0.167969 -6.46875 0.355469 -6.269531 L 0.539062 -4.507812 L 0.726562 -2.65625 C 0.773438 -2.117188 0.804688 -1.558594 0.894531 -1.035156 C 0.757812 -0.632812 1.019531 -0.167969 1.40625 -0.015625 C 1.390625 0.0625 1.390625 0.125 1.421875 0.199219 C 1.542969 0.464844 1.820312 0.480469 2.070312 0.433594 C 2.128906 0.433594 2.222656 0.417969 2.222656 0.417969 C 2.207031 0.433594 3.089844 0.167969 3.273438 0.046875 L 3.289062 0.03125 C 3.457031 -0.046875 3.628906 -0.109375 3.796875 -0.183594 C 3.828125 -0.199219 3.875 -0.214844 3.90625 -0.230469 L 3.921875 -0.230469 C 4.429688 -0.449219 4.957031 -0.632812 5.480469 -0.816406 C 6.578125 -1.203125 7.71875 -1.496094 8.863281 -1.714844 C 8.957031 -1.730469 9 -1.792969 9.015625 -1.867188 Z M 5.28125 -5.140625 L 5.296875 -5.09375 C 5.203125 -5.066406 5.125 -5.035156 5.035156 -4.988281 C 4.261719 -4.679688 3.457031 -4.386719 2.703125 -4 C 2.824219 -4.105469 2.917969 -4.261719 2.949219 -4.429688 C 3.242188 -4.507812 3.535156 -4.601562 3.84375 -4.695312 C 4.324219 -4.847656 4.800781 -4.988281 5.28125 -5.140625 Z M 1.867188 0.199219 C 2.175781 0.125 2.46875 0 2.765625 -0.109375 C 3.058594 -0.199219 3.335938 -0.308594 3.613281 -0.417969 L 3.613281 -0.386719 C 3.382812 -0.261719 3.148438 -0.140625 2.902344 -0.015625 C 2.792969 0.046875 2.671875 0.109375 2.546875 0.167969 C 2.53125 0.183594 2.515625 0.183594 2.5 0.183594 C 2.453125 0.199219 2.101562 0.230469 1.867188 0.199219 Z M 1.867188 0.199219 "/></g></g></g><g fill="#2b2b2b" fill-opacity="1"><g transform="translate(14.792298, 23.173388)"><g><path d="M 0.0820312 0 L 0.503906 0 L 0.503906 -0.355469 L 1.011719 -0.355469 C 1.335938 -0.355469 1.519531 -0.496094 1.519531 -0.746094 C 1.519531 -1.003906 1.339844 -1.148438 1.015625 -1.148438 L 0.0820312 -1.148438 Z M 0.503906 -0.589844 L 0.503906 -0.914062 L 0.871094 -0.914062 C 1.015625 -0.914062 1.09375 -0.855469 1.09375 -0.753906 C 1.09375 -0.648438 1.015625 -0.589844 0.871094 -0.589844 Z M 0.503906 -0.589844 "/></g></g></g><g fill="#2b2b2b" fill-opacity="1"><g transform="translate(16.318199, 23.173388)"><g><path d="M 0.0820312 0 L 0.503906 0 L 0.503906 -0.457031 L 1.132812 -0.457031 L 1.132812 0 L 1.558594 0 L 1.558594 -1.148438 L 1.132812 -1.148438 L 1.132812 -0.742188 L 0.503906 -0.742188 L 0.503906 -1.148438 L 0.0820312 -1.148438 Z M 0.0820312 0 "/></g></g></g><g fill="#2b2b2b" fill-opacity="1"><g transform="translate(17.932349, 23.173388)"><g><path d="M 0.894531 0.0390625 C 1.402344 0.0390625 1.738281 -0.207031 1.738281 -0.574219 C 1.738281 -0.945312 1.402344 -1.1875 0.894531 -1.1875 C 0.386719 -1.1875 0.0507812 -0.945312 0.0507812 -0.574219 C 0.0507812 -0.207031 0.386719 0.0390625 0.894531 0.0390625 Z M 0.894531 -0.257812 C 0.644531 -0.257812 0.476562 -0.382812 0.476562 -0.574219 C 0.476562 -0.765625 0.644531 -0.890625 0.894531 -0.890625 C 1.148438 -0.890625 1.316406 -0.765625 1.316406 -0.574219 C 1.316406 -0.382812 1.148438 -0.257812 0.894531 -0.257812 Z M 0.894531 -0.257812 "/></g></g></g><g fill="#2b2b2b" fill-opacity="1"><g transform="translate(19.700534, 23.173388)"><g><path d="M 0.460938 0 L 0.882812 0 L 0.882812 -0.851562 L 1.332031 -0.851562 L 1.332031 -1.148438 L 0.015625 -1.148438 L 0.015625 -0.851562 L 0.460938 -0.851562 Z M 0.460938 0 "/></g></g></g><g fill="#2b2b2b" fill-opacity="1"><g transform="translate(21.022659, 23.173388)"><g><path d="M 0.894531 0.0390625 C 1.402344 0.0390625 1.738281 -0.207031 1.738281 -0.574219 C 1.738281 -0.945312 1.402344 -1.1875 0.894531 -1.1875 C 0.386719 -1.1875 0.0507812 -0.945312 0.0507812 -0.574219 C 0.0507812 -0.207031 0.386719 0.0390625 0.894531 0.0390625 Z M 0.894531 -0.257812 C 0.644531 -0.257812 0.476562 -0.382812 0.476562 -0.574219 C 0.476562 -0.765625 0.644531 -0.890625 0.894531 -0.890625 C 1.148438 -0.890625 1.316406 -0.765625 1.316406 -0.574219 C 1.316406 -0.382812 1.148438 -0.257812 0.894531 -0.257812 Z M 0.894531 -0.257812 "/></g></g></g><g fill="#2b2b2b" fill-opacity="1"><g transform="translate(22.790844, 23.173388)"><g><path d="M 0.792969 0.0273438 C 1.035156 0.0273438 1.25 -0.0585938 1.359375 -0.191406 L 1.375 0 L 1.710938 0 L 1.710938 -0.664062 L 0.691406 -0.664062 L 0.691406 -0.453125 L 1.300781 -0.453125 C 1.285156 -0.332031 1.128906 -0.246094 0.917969 -0.246094 C 0.65625 -0.246094 0.476562 -0.375 0.476562 -0.5625 C 0.476562 -0.761719 0.632812 -0.890625 0.867188 -0.890625 C 1.019531 -0.890625 1.144531 -0.828125 1.175781 -0.730469 L 1.574219 -0.800781 C 1.523438 -1.027344 1.238281 -1.179688 0.867188 -1.179688 C 0.378906 -1.179688 0.0507812 -0.925781 0.0507812 -0.550781 C 0.0507812 -0.207031 0.351562 0.0273438 0.792969 0.0273438 Z M 0.792969 0.0273438 "/></g></g></g><g fill="#2b2b2b" fill-opacity="1"><g transform="translate(24.533357, 23.173388)"><g><path d="M 1.339844 0.03125 C 1.441406 0.03125 1.570312 -0.00390625 1.632812 -0.0585938 L 1.566406 -0.226562 C 1.546875 -0.207031 1.507812 -0.191406 1.480469 -0.191406 C 1.433594 -0.191406 1.40625 -0.210938 1.382812 -0.242188 L 1.304688 -0.363281 C 1.277344 -0.402344 1.242188 -0.4375 1.203125 -0.449219 C 1.414062 -0.492188 1.535156 -0.613281 1.535156 -0.785156 C 1.535156 -1.015625 1.359375 -1.148438 1.050781 -1.148438 L 0.0820312 -1.148438 L 0.0820312 0 L 0.503906 0 L 0.503906 -0.378906 L 0.742188 -0.378906 C 0.820312 -0.378906 0.890625 -0.347656 0.9375 -0.277344 L 1.007812 -0.167969 C 1.074219 -0.0703125 1.164062 0.03125 1.339844 0.03125 Z M 0.503906 -0.617188 L 0.503906 -0.902344 L 0.921875 -0.902344 C 1.039062 -0.902344 1.109375 -0.847656 1.109375 -0.757812 C 1.109375 -0.667969 1.039062 -0.617188 0.917969 -0.617188 Z M 0.503906 -0.617188 "/></g></g></g><g fill="#2b2b2b" fill-opacity="1"><g transform="translate(26.142694, 23.173388)"><g><path d="M 0 0 L 0.441406 0 L 0.527344 -0.199219 L 1.097656 -0.199219 L 1.1875 0 L 1.625 0 L 1.066406 -1.148438 L 0.574219 -1.148438 Z M 0.605469 -0.433594 L 0.8125 -0.890625 L 0.816406 -0.890625 L 1.019531 -0.433594 Z M 0.605469 -0.433594 "/></g></g></g><g fill="#2b2b2b" fill-opacity="1"><g transform="translate(27.745613, 23.173388)"><g><path d="M 0.0820312 0 L 0.503906 0 L 0.503906 -0.355469 L 1.011719 -0.355469 C 1.335938 -0.355469 1.519531 -0.496094 1.519531 -0.746094 C 1.519531 -1.003906 1.339844 -1.148438 1.015625 -1.148438 L 0.0820312 -1.148438 Z M 0.503906 -0.589844 L 0.503906 -0.914062 L 0.871094 -0.914062 C 1.015625 -0.914062 1.09375 -0.855469 1.09375 -0.753906 C 1.09375 -0.648438 1.015625 -0.589844 0.871094 -0.589844 Z M 0.503906 -0.589844 "/></g></g></g><g fill="#2b2b2b" fill-opacity="1"><g transform="translate(29.271513, 23.173388)"><g><path d="M 0.0820312 0 L 0.503906 0 L 0.503906 -0.457031 L 1.132812 -0.457031 L 1.132812 0 L 1.558594 0 L 1.558594 -1.148438 L 1.132812 -1.148438 L 1.132812 -0.742188 L 0.503906 -0.742188 L 0.503906 -1.148438 L 0.0820312 -1.148438 Z M 0.0820312 0 "/></g></g></g><g fill="#2b2b2b" fill-opacity="1"><g transform="translate(30.885664, 23.173388)"><g><path d="M 0.0820312 0 L 1.3125 0 L 1.3125 -0.261719 L 0.492188 -0.261719 L 0.492188 -0.472656 L 1.230469 -0.472656 L 1.230469 -0.695312 L 0.492188 -0.695312 L 0.492188 -0.890625 L 1.296875 -0.890625 L 1.296875 -1.148438 L 0.0820312 -1.148438 Z M 0.0820312 0 "/></g></g></g><g fill="#2b2b2b" fill-opacity="1"><g transform="translate(32.206185, 23.173388)"><g><path d="M 1.339844 0.03125 C 1.441406 0.03125 1.570312 -0.00390625 1.632812 -0.0585938 L 1.566406 -0.226562 C 1.546875 -0.207031 1.507812 -0.191406 1.480469 -0.191406 C 1.433594 -0.191406 1.40625 -0.210938 1.382812 -0.242188 L 1.304688 -0.363281 C 1.277344 -0.402344 1.242188 -0.4375 1.203125 -0.449219 C 1.414062 -0.492188 1.535156 -0.613281 1.535156 -0.785156 C 1.535156 -1.015625 1.359375 -1.148438 1.050781 -1.148438 L 0.0820312 -1.148438 L 0.0820312 0 L 0.503906 0 L 0.503906 -0.378906 L 0.742188 -0.378906 C 0.820312 -0.378906 0.890625 -0.347656 0.9375 -0.277344 L 1.007812 -0.167969 C 1.074219 -0.0703125 1.164062 0.03125 1.339844 0.03125 Z M 0.503906 -0.617188 L 0.503906 -0.902344 L 0.921875 -0.902344 C 1.039062 -0.902344 1.109375 -0.847656 1.109375 -0.757812 C 1.109375 -0.667969 1.039062 -0.617188 0.917969 -0.617188 Z M 0.503906 -0.617188 "/></g></g></g><g fill="#2b2b2b" fill-opacity="1"><g transform="translate(33.815522, 23.173388)"><g><path d="M 0.757812 0.0351562 C 1.183594 0.0351562 1.457031 -0.128906 1.457031 -0.367188 C 1.457031 -0.578125 1.289062 -0.683594 0.902344 -0.722656 L 0.6875 -0.746094 C 0.539062 -0.757812 0.472656 -0.785156 0.476562 -0.828125 C 0.476562 -0.890625 0.59375 -0.929688 0.761719 -0.929688 C 0.9375 -0.929688 1.125 -0.878906 1.253906 -0.796875 L 1.371094 -1.039062 C 1.226562 -1.128906 0.996094 -1.183594 0.757812 -1.183594 C 0.34375 -1.183594 0.0625 -1.046875 0.0625 -0.796875 C 0.0625 -0.59375 0.21875 -0.492188 0.585938 -0.453125 L 0.796875 -0.429688 C 0.972656 -0.414062 1.046875 -0.378906 1.046875 -0.332031 C 1.046875 -0.269531 0.941406 -0.234375 0.777344 -0.234375 C 0.558594 -0.234375 0.308594 -0.308594 0.171875 -0.414062 L 0.03125 -0.164062 C 0.1875 -0.046875 0.480469 0.0351562 0.757812 0.0351562 Z M 0.757812 0.0351562 "/></g></g></g><g fill="#2b2b2b" fill-opacity="1"><g transform="translate(35.280452, 23.173388)"><g/></g></g><g fill="#2b2b2b" fill-opacity="1"><g transform="translate(35.633439, 23.173388)"><g><path d="M 0.757812 0.0351562 C 1.183594 0.0351562 1.457031 -0.128906 1.457031 -0.367188 C 1.457031 -0.578125 1.289062 -0.683594 0.902344 -0.722656 L 0.6875 -0.746094 C 0.539062 -0.757812 0.472656 -0.785156 0.476562 -0.828125 C 0.476562 -0.890625 0.59375 -0.929688 0.761719 -0.929688 C 0.9375 -0.929688 1.125 -0.878906 1.253906 -0.796875 L 1.371094 -1.039062 C 1.226562 -1.128906 0.996094 -1.183594 0.757812 -1.183594 C 0.34375 -1.183594 0.0625 -1.046875 0.0625 -0.796875 C 0.0625 -0.59375 0.21875 -0.492188 0.585938 -0.453125 L 0.796875 -0.429688 C 0.972656 -0.414062 1.046875 -0.378906 1.046875 -0.332031 C 1.046875 -0.269531 0.941406 -0.234375 0.777344 -0.234375 C 0.558594 -0.234375 0.308594 -0.308594 0.171875 -0.414062 L 0.03125 -0.164062 C 0.1875 -0.046875 0.480469 0.0351562 0.757812 0.0351562 Z M 0.757812 0.0351562 "/></g></g></g><g fill="#2b2b2b" fill-opacity="1"><g transform="translate(37.098369, 23.173388)"><g><path d="M 0.0820312 0 L 1.3125 0 L 1.3125 -0.261719 L 0.492188 -0.261719 L 0.492188 -0.472656 L 1.230469 -0.472656 L 1.230469 -0.695312 L 0.492188 -0.695312 L 0.492188 -0.890625 L 1.296875 -0.890625 L 1.296875 -1.148438 L 0.0820312 -1.148438 Z M 0.0820312 0 "/></g></g></g><g fill="#2b2b2b" fill-opacity="1"><g transform="translate(38.41889, 23.173388)"><g><path d="M 1.339844 0.03125 C 1.441406 0.03125 1.570312 -0.00390625 1.632812 -0.0585938 L 1.566406 -0.226562 C 1.546875 -0.207031 1.507812 -0.191406 1.480469 -0.191406 C 1.433594 -0.191406 1.40625 -0.210938 1.382812 -0.242188 L 1.304688 -0.363281 C 1.277344 -0.402344 1.242188 -0.4375 1.203125 -0.449219 C 1.414062 -0.492188 1.535156 -0.613281 1.535156 -0.785156 C 1.535156 -1.015625 1.359375 -1.148438 1.050781 -1.148438 L 0.0820312 -1.148438 L 0.0820312 0 L 0.503906 0 L 0.503906 -0.378906 L 0.742188 -0.378906 C 0.820312 -0.378906 0.890625 -0.347656 0.9375 -0.277344 L 1.007812 -0.167969 C 1.074219 -0.0703125 1.164062 0.03125 1.339844 0.03125 Z M 0.503906 -0.617188 L 0.503906 -0.902344 L 0.921875 -0.902344 C 1.039062 -0.902344 1.109375 -0.847656 1.109375 -0.757812 C 1.109375 -0.667969 1.039062 -0.617188 0.917969 -0.617188 Z M 0.503906 -0.617188 "/></g></g></g><g fill="#2b2b2b" fill-opacity="1"><g transform="translate(40.028227, 23.173388)"><g><path d="M 0.566406 0 L 1.046875 0 L 1.613281 -1.148438 L 1.175781 -1.148438 L 0.808594 -0.351562 L 0.804688 -0.351562 L 0.4375 -1.148438 L 0 -1.148438 Z M 0.566406 0 "/></g></g></g><g fill="#2b2b2b" fill-opacity="1"><g transform="translate(41.618309, 23.173388)"><g><path d="M 0.0820312 0 L 0.503906 0 L 0.503906 -1.148438 L 0.0820312 -1.148438 Z M 0.0820312 0 "/></g></g></g><g fill="#2b2b2b" fill-opacity="1"><g transform="translate(42.178282, 23.173388)"><g><path d="M 0.890625 0.0273438 C 1.316406 0.0273438 1.621094 -0.152344 1.683594 -0.433594 L 1.292969 -0.503906 C 1.261719 -0.359375 1.109375 -0.269531 0.902344 -0.269531 C 0.640625 -0.269531 0.476562 -0.386719 0.476562 -0.574219 C 0.476562 -0.761719 0.621094 -0.878906 0.855469 -0.878906 C 1.019531 -0.878906 1.148438 -0.804688 1.1875 -0.683594 L 1.574219 -0.765625 C 1.496094 -1.019531 1.210938 -1.179688 0.84375 -1.179688 C 0.359375 -1.179688 0.0507812 -0.945312 0.0507812 -0.574219 C 0.0507812 -0.195312 0.378906 0.0273438 0.890625 0.0273438 Z M 0.890625 0.0273438 "/></g></g></g><g fill="#2b2b2b" fill-opacity="1"><g transform="translate(43.863032, 23.173388)"><g><path d="M 0.0820312 0 L 1.3125 0 L 1.3125 -0.261719 L 0.492188 -0.261719 L 0.492188 -0.472656 L 1.230469 -0.472656 L 1.230469 -0.695312 L 0.492188 -0.695312 L 0.492188 -0.890625 L 1.296875 -0.890625 L 1.296875 -1.148438 L 0.0820312 -1.148438 Z M 0.0820312 0 "/></g></g></g></svg>